<svg width="1612" height="736" viewBox="0 0 1612 736" fill="none" xmlns="http://www.w3.org/2000/svg">
<g filter="url(#filter0_d)">
<circle r="2.14863" transform="matrix(0.866044 -0.499967 0.866044 0.499967 102.722 469.821)" fill="white" fill-opacity="0.2"/>
<circle r="2.14863" transform="matrix(0.866044 -0.499967 0.866044 0.499967 110.165 465.524)" fill="white" fill-opacity="0.2"/>
<circle r="2.14863" transform="matrix(0.866044 -0.499967 0.866044 0.499967 117.608 461.227)" fill="white" fill-opacity="0.2"/>
<circle r="2.14863" transform="matrix(0.866044 -0.499967 0.866044 0.499967 125.051 456.93)" fill="white" fill-opacity="0.2"/>
<circle r="2.14863" transform="matrix(0.866044 -0.499967 0.866044 0.499967 132.495 452.633)" fill="white" fill-opacity="0.2"/>
<circle r="2.14863" transform="matrix(0.866044 -0.499967 0.866044 0.499967 139.938 448.336)" fill="white" fill-opacity="0.2"/>
<circle r="2.14863" transform="matrix(0.866044 -0.499967 0.866044 0.499967 147.381 444.04)" fill="white" fill-opacity="0.2"/>
<circle r="2.14863" transform="matrix(0.866044 -0.499967 0.866044 0.499967 154.824 439.742)" fill="white" fill-opacity="0.2"/>
<circle r="2.14863" transform="matrix(0.866044 -0.499967 0.866044 0.499967 162.268 435.446)" fill="white" fill-opacity="0.2"/>
<circle r="2.14863" transform="matrix(0.866044 -0.499967 0.866044 0.499967 169.711 431.148)" fill="white" fill-opacity="0.2"/>
<circle r="2.14863" transform="matrix(0.866044 -0.499967 0.866044 0.499967 110.165 474.118)" fill="white" fill-opacity="0.2"/>
<circle r="2.14863" transform="matrix(0.866044 -0.499967 0.866044 0.499967 117.608 469.821)" fill="white" fill-opacity="0.2"/>
<circle r="2.14863" transform="matrix(0.866044 -0.499967 0.866044 0.499967 125.051 465.524)" fill="white" fill-opacity="0.2"/>
<circle r="2.14863" transform="matrix(0.866044 -0.499967 0.866044 0.499967 132.495 461.227)" fill="white" fill-opacity="0.2"/>
<circle r="2.14863" transform="matrix(0.866044 -0.499967 0.866044 0.499967 139.938 456.93)" fill="white" fill-opacity="0.2"/>
<circle r="2.14863" transform="matrix(0.866044 -0.499967 0.866044 0.499967 147.381 452.633)" fill="white" fill-opacity="0.2"/>
<circle r="2.14863" transform="matrix(0.866044 -0.499967 0.866044 0.499967 154.824 448.336)" fill="white" fill-opacity="0.2"/>
<circle r="2.14863" transform="matrix(0.866044 -0.499967 0.866044 0.499967 162.268 444.04)" fill="white" fill-opacity="0.2"/>
<circle r="2.14863" transform="matrix(0.866044 -0.499967 0.866044 0.499967 169.711 439.742)" fill="white" fill-opacity="0.2"/>
<circle r="2.14863" transform="matrix(0.866044 -0.499967 0.866044 0.499967 177.154 435.446)" fill="white" fill-opacity="0.2"/>
<circle r="2.14863" transform="matrix(0.866044 -0.499967 0.866044 0.499967 117.608 478.415)" fill="white" fill-opacity="0.2"/>
<circle r="2.14863" transform="matrix(0.866044 -0.499967 0.866044 0.499967 125.051 474.118)" fill="white" fill-opacity="0.2"/>
<circle r="2.14863" transform="matrix(0.866044 -0.499967 0.866044 0.499967 132.495 469.821)" fill="white" fill-opacity="0.2"/>
<circle r="2.14863" transform="matrix(0.866044 -0.499967 0.866044 0.499967 139.938 465.524)" fill="white" fill-opacity="0.2"/>
<circle r="2.14863" transform="matrix(0.866044 -0.499967 0.866044 0.499967 147.381 461.227)" fill="white" fill-opacity="0.2"/>
<circle r="2.14863" transform="matrix(0.866044 -0.499967 0.866044 0.499967 154.824 456.93)" fill="white" fill-opacity="0.2"/>
<circle r="2.14863" transform="matrix(0.866044 -0.499967 0.866044 0.499967 162.268 452.633)" fill="white" fill-opacity="0.2"/>
<circle r="2.14863" transform="matrix(0.866044 -0.499967 0.866044 0.499967 169.711 448.336)" fill="white" fill-opacity="0.2"/>
<circle r="2.14863" transform="matrix(0.866044 -0.499967 0.866044 0.499967 177.154 444.039)" fill="white" fill-opacity="0.2"/>
<circle r="2.14863" transform="matrix(0.866044 -0.499967 0.866044 0.499967 184.597 439.742)" fill="white" fill-opacity="0.2"/>
<circle r="2.14863" transform="matrix(0.866044 -0.499967 0.866044 0.499967 125.051 482.712)" fill="white" fill-opacity="0.2"/>
<circle r="2.14863" transform="matrix(0.866044 -0.499967 0.866044 0.499967 132.495 478.415)" fill="white" fill-opacity="0.2"/>
<circle r="2.14863" transform="matrix(0.866044 -0.499967 0.866044 0.499967 139.938 474.118)" fill="white" fill-opacity="0.2"/>
<circle r="2.14863" transform="matrix(0.866044 -0.499967 0.866044 0.499967 147.381 469.821)" fill="white" fill-opacity="0.2"/>
<circle r="2.14863" transform="matrix(0.866044 -0.499967 0.866044 0.499967 154.824 465.524)" fill="white" fill-opacity="0.2"/>
<circle r="2.14863" transform="matrix(0.866044 -0.499967 0.866044 0.499967 162.268 461.227)" fill="white" fill-opacity="0.2"/>
<circle r="2.14863" transform="matrix(0.866044 -0.499967 0.866044 0.499967 169.711 456.93)" fill="white" fill-opacity="0.2"/>
<circle r="2.14863" transform="matrix(0.866044 -0.499967 0.866044 0.499967 177.154 452.633)" fill="white" fill-opacity="0.2"/>
<circle r="2.14863" transform="matrix(0.866044 -0.499967 0.866044 0.499967 184.597 448.336)" fill="white" fill-opacity="0.2"/>
<circle r="2.14863" transform="matrix(0.866044 -0.499967 0.866044 0.499967 192.04 444.039)" fill="white" fill-opacity="0.2"/>
<circle r="2.14863" transform="matrix(0.866044 -0.499967 0.866044 0.499967 132.495 487.009)" fill="white" fill-opacity="0.2"/>
<circle r="2.14863" transform="matrix(0.866044 -0.499967 0.866044 0.499967 139.938 482.712)" fill="white" fill-opacity="0.2"/>
<circle r="2.14863" transform="matrix(0.866044 -0.499967 0.866044 0.499967 147.381 478.415)" fill="white" fill-opacity="0.2"/>
<circle r="2.14863" transform="matrix(0.866044 -0.499967 0.866044 0.499967 154.824 474.118)" fill="white" fill-opacity="0.2"/>
<circle r="2.14863" transform="matrix(0.866044 -0.499967 0.866044 0.499967 162.268 469.821)" fill="white" fill-opacity="0.2"/>
<circle r="2.14863" transform="matrix(0.866044 -0.499967 0.866044 0.499967 169.711 465.524)" fill="white" fill-opacity="0.2"/>
<circle r="2.14863" transform="matrix(0.866044 -0.499967 0.866044 0.499967 177.154 461.227)" fill="white" fill-opacity="0.2"/>
<circle r="2.14863" transform="matrix(0.866044 -0.499967 0.866044 0.499967 184.597 456.93)" fill="white" fill-opacity="0.2"/>
<circle r="2.14863" transform="matrix(0.866044 -0.499967 0.866044 0.499967 192.04 452.633)" fill="white" fill-opacity="0.2"/>
<circle r="2.14863" transform="matrix(0.866044 -0.499967 0.866044 0.499967 199.484 448.336)" fill="white" fill-opacity="0.2"/>
<circle r="2.14863" transform="matrix(0.866044 -0.499967 0.866044 0.499967 139.938 491.306)" fill="white" fill-opacity="0.2"/>
<circle r="2.14863" transform="matrix(0.866044 -0.499967 0.866044 0.499967 147.381 487.009)" fill="white" fill-opacity="0.2"/>
<circle r="2.14863" transform="matrix(0.866044 -0.499967 0.866044 0.499967 154.824 482.712)" fill="white" fill-opacity="0.2"/>
<circle r="2.14863" transform="matrix(0.866044 -0.499967 0.866044 0.499967 162.268 478.415)" fill="white" fill-opacity="0.2"/>
<circle r="2.14863" transform="matrix(0.866044 -0.499967 0.866044 0.499967 169.711 474.118)" fill="white" fill-opacity="0.2"/>
<circle r="2.14863" transform="matrix(0.866044 -0.499967 0.866044 0.499967 177.154 469.821)" fill="white" fill-opacity="0.2"/>
<circle r="2.14863" transform="matrix(0.866044 -0.499967 0.866044 0.499967 184.597 465.524)" fill="white" fill-opacity="0.2"/>
<circle r="2.14863" transform="matrix(0.866044 -0.499967 0.866044 0.499967 192.04 461.227)" fill="white" fill-opacity="0.2"/>
<circle r="2.14863" transform="matrix(0.866044 -0.499967 0.866044 0.499967 199.484 456.93)" fill="white" fill-opacity="0.2"/>
<circle r="2.14863" transform="matrix(0.866044 -0.499967 0.866044 0.499967 206.927 452.633)" fill="white" fill-opacity="0.2"/>
<circle r="2.14863" transform="matrix(0.866044 -0.499967 0.866044 0.499967 147.381 495.603)" fill="white" fill-opacity="0.2"/>
<circle r="2.14863" transform="matrix(0.866044 -0.499967 0.866044 0.499967 154.824 491.306)" fill="white" fill-opacity="0.2"/>
<circle r="2.14863" transform="matrix(0.866044 -0.499967 0.866044 0.499967 162.268 487.009)" fill="white" fill-opacity="0.2"/>
<circle r="2.14863" transform="matrix(0.866044 -0.499967 0.866044 0.499967 169.711 482.712)" fill="white" fill-opacity="0.2"/>
<circle r="2.14863" transform="matrix(0.866044 -0.499967 0.866044 0.499967 177.154 478.415)" fill="white" fill-opacity="0.2"/>
<circle r="2.14863" transform="matrix(0.866044 -0.499967 0.866044 0.499967 184.597 474.118)" fill="white" fill-opacity="0.2"/>
<circle r="2.14863" transform="matrix(0.866044 -0.499967 0.866044 0.499967 192.04 469.821)" fill="white" fill-opacity="0.2"/>
<circle r="2.14863" transform="matrix(0.866044 -0.499967 0.866044 0.499967 199.484 465.524)" fill="white" fill-opacity="0.2"/>
<circle r="2.14863" transform="matrix(0.866044 -0.499967 0.866044 0.499967 206.927 461.227)" fill="white" fill-opacity="0.2"/>
<circle r="2.14863" transform="matrix(0.866044 -0.499967 0.866044 0.499967 214.37 456.93)" fill="white" fill-opacity="0.2"/>
<circle r="2.14863" transform="matrix(0.866044 -0.499967 0.866044 0.499967 154.824 499.9)" fill="white" fill-opacity="0.2"/>
<circle r="2.14863" transform="matrix(0.866044 -0.499967 0.866044 0.499967 162.268 495.603)" fill="white" fill-opacity="0.2"/>
<circle r="2.14863" transform="matrix(0.866044 -0.499967 0.866044 0.499967 169.711 491.306)" fill="white" fill-opacity="0.2"/>
<circle r="2.14863" transform="matrix(0.866044 -0.499967 0.866044 0.499967 177.154 487.009)" fill="white" fill-opacity="0.2"/>
<circle r="2.14863" transform="matrix(0.866044 -0.499967 0.866044 0.499967 184.597 482.712)" fill="white" fill-opacity="0.2"/>
<circle r="2.14863" transform="matrix(0.866044 -0.499967 0.866044 0.499967 192.04 478.415)" fill="white" fill-opacity="0.2"/>
<circle r="2.14863" transform="matrix(0.866044 -0.499967 0.866044 0.499967 199.484 474.118)" fill="white" fill-opacity="0.2"/>
<circle r="2.14863" transform="matrix(0.866044 -0.499967 0.866044 0.499967 206.927 469.821)" fill="white" fill-opacity="0.2"/>
<circle r="2.14863" transform="matrix(0.866044 -0.499967 0.866044 0.499967 214.37 465.524)" fill="white" fill-opacity="0.2"/>
<circle r="2.14863" transform="matrix(0.866044 -0.499967 0.866044 0.499967 221.813 461.227)" fill="white" fill-opacity="0.2"/>
<circle r="2.14863" transform="matrix(0.866044 -0.499967 0.866044 0.499967 162.268 504.197)" fill="white" fill-opacity="0.2"/>
<circle r="2.14863" transform="matrix(0.866044 -0.499967 0.866044 0.499967 169.711 499.9)" fill="white" fill-opacity="0.2"/>
<circle r="2.14863" transform="matrix(0.866044 -0.499967 0.866044 0.499967 177.154 495.603)" fill="white" fill-opacity="0.2"/>
<circle r="2.14863" transform="matrix(0.866044 -0.499967 0.866044 0.499967 184.597 491.306)" fill="white" fill-opacity="0.2"/>
<circle r="2.14863" transform="matrix(0.866044 -0.499967 0.866044 0.499967 192.04 487.009)" fill="white" fill-opacity="0.2"/>
<circle r="2.14863" transform="matrix(0.866044 -0.499967 0.866044 0.499967 199.484 482.712)" fill="white" fill-opacity="0.2"/>
<circle r="2.14863" transform="matrix(0.866044 -0.499967 0.866044 0.499967 206.927 478.415)" fill="white" fill-opacity="0.2"/>
<circle r="2.14863" transform="matrix(0.866044 -0.499967 0.866044 0.499967 214.37 474.118)" fill="white" fill-opacity="0.2"/>
<circle r="2.14863" transform="matrix(0.866044 -0.499967 0.866044 0.499967 221.813 469.821)" fill="white" fill-opacity="0.2"/>
<circle r="2.14863" transform="matrix(0.866044 -0.499967 0.866044 0.499967 229.257 465.524)" fill="white" fill-opacity="0.2"/>
<circle r="2.14863" transform="matrix(0.866044 -0.499967 0.866044 0.499967 169.711 508.494)" fill="white" fill-opacity="0.2"/>
<circle r="2.14863" transform="matrix(0.866044 -0.499967 0.866044 0.499967 177.154 504.197)" fill="white" fill-opacity="0.2"/>
<circle r="2.14863" transform="matrix(0.866044 -0.499967 0.866044 0.499967 184.597 499.9)" fill="white" fill-opacity="0.2"/>
<circle r="2.14863" transform="matrix(0.866044 -0.499967 0.866044 0.499967 192.04 495.603)" fill="white" fill-opacity="0.2"/>
<circle r="2.14863" transform="matrix(0.866044 -0.499967 0.866044 0.499967 199.484 491.306)" fill="white" fill-opacity="0.2"/>
<circle r="2.14863" transform="matrix(0.866044 -0.499967 0.866044 0.499967 206.927 487.009)" fill="white" fill-opacity="0.2"/>
<circle r="2.14863" transform="matrix(0.866044 -0.499967 0.866044 0.499967 214.37 482.712)" fill="white" fill-opacity="0.2"/>
<circle r="2.14863" transform="matrix(0.866044 -0.499967 0.866044 0.499967 221.813 478.415)" fill="white" fill-opacity="0.2"/>
<circle r="2.14863" transform="matrix(0.866044 -0.499967 0.866044 0.499967 229.257 474.118)" fill="white" fill-opacity="0.2"/>
<circle r="2.14863" transform="matrix(0.866044 -0.499967 0.866044 0.499967 236.7 469.821)" fill="white" fill-opacity="0.2"/>
</g>
<g filter="url(#filter1_d)">
<path d="M1405 121.979L1511.47 138.448L1433.53 183.444L1405 121.979Z" fill="white" fill-opacity="0.2"/>
</g>
<g filter="url(#filter2_d)">
<rect width="81.6479" height="81.6479" transform="matrix(0.866044 -0.499967 0.866044 0.499967 309 136.821)" fill="white" fill-opacity="0.2"/>
</g>
<g filter="url(#filter3_d)">
<circle r="43.3003" transform="matrix(0.866044 -0.499967 0.866044 0.499967 436 601.298)" fill="white" fill-opacity="0.2"/>
</g>
<mask id="mask0" mask-type="alpha" maskUnits="userSpaceOnUse" x="98" y="70" width="1442" height="575">
<rect x="98" y="70" width="1442" height="575" fill="white"/>
</mask>
<g mask="url(#mask0)">
<rect width="816.549" height="204.137" transform="matrix(0.865969 -0.500097 0.865969 0.500097 797 654.354)" fill="url(#paint0_linear)"/>
<rect width="816.549" height="204.137" transform="matrix(0.865969 -0.500097 0.865969 0.500097 974 665.354)" fill="url(#paint1_linear)"/>
</g>
<defs>
<filter id="filter0_d" x="0.0900879" y="333.629" width="339.241" height="280.384" filterUnits="userSpaceOnUse" color-interpolation-filters="sRGB">
<feFlood flood-opacity="0" result="BackgroundImageFix"/>
<feColorMatrix in="SourceAlpha" type="matrix" values="0 0 0 0 0 0 0 0 0 0 0 0 0 0 0 0 0 0 127 0"/>
<feOffset dy="4"/>
<feGaussianBlur stdDeviation="50"/>
<feColorMatrix type="matrix" values="0 0 0 0 0.945833 0 0 0 0 0.945833 0 0 0 0 0.945833 0 0 0 0.25 0"/>
<feBlend mode="normal" in2="BackgroundImageFix" result="effect1_dropShadow"/>
<feBlend mode="normal" in="SourceGraphic" in2="effect1_dropShadow" result="shape"/>
</filter>
<filter id="filter1_d" x="1305" y="25.9785" width="306.471" height="261.466" filterUnits="userSpaceOnUse" color-interpolation-filters="sRGB">
<feFlood flood-opacity="0" result="BackgroundImageFix"/>
<feColorMatrix in="SourceAlpha" type="matrix" values="0 0 0 0 0 0 0 0 0 0 0 0 0 0 0 0 0 0 127 0"/>
<feOffset dy="4"/>
<feGaussianBlur stdDeviation="50"/>
<feColorMatrix type="matrix" values="0 0 0 0 0.945833 0 0 0 0 0.945833 0 0 0 0 0.945833 0 0 0 0.25 0"/>
<feBlend mode="normal" in2="BackgroundImageFix" result="effect1_dropShadow"/>
<feBlend mode="normal" in="SourceGraphic" in2="effect1_dropShadow" result="shape"/>
</filter>
<filter id="filter2_d" x="209" y="0" width="341.421" height="281.643" filterUnits="userSpaceOnUse" color-interpolation-filters="sRGB">
<feFlood flood-opacity="0" result="BackgroundImageFix"/>
<feColorMatrix in="SourceAlpha" type="matrix" values="0 0 0 0 0 0 0 0 0 0 0 0 0 0 0 0 0 0 127 0"/>
<feOffset dy="4"/>
<feGaussianBlur stdDeviation="50"/>
<feColorMatrix type="matrix" values="0 0 0 0 0.945833 0 0 0 0 0.945833 0 0 0 0 0.945833 0 0 0 0.25 0"/>
<feBlend mode="normal" in2="BackgroundImageFix" result="effect1_dropShadow"/>
<feBlend mode="normal" in="SourceGraphic" in2="effect1_dropShadow" result="shape"/>
</filter>
<filter id="filter3_d" x="282.967" y="474.682" width="306.066" height="261.232" filterUnits="userSpaceOnUse" color-interpolation-filters="sRGB">
<feFlood flood-opacity="0" result="BackgroundImageFix"/>
<feColorMatrix in="SourceAlpha" type="matrix" values="0 0 0 0 0 0 0 0 0 0 0 0 0 0 0 0 0 0 127 0"/>
<feOffset dy="4"/>
<feGaussianBlur stdDeviation="50"/>
<feColorMatrix type="matrix" values="0 0 0 0 0.945833 0 0 0 0 0.945833 0 0 0 0 0.945833 0 0 0 0.25 0"/>
<feBlend mode="normal" in2="BackgroundImageFix" result="effect1_dropShadow"/>
<feBlend mode="normal" in="SourceGraphic" in2="effect1_dropShadow" result="shape"/>
</filter>
<linearGradient id="paint0_linear" x1="408.275" y1="0" x2="408.275" y2="204.137" gradientUnits="userSpaceOnUse">
<stop stop-color="white" stop-opacity="0"/>
<stop offset="1" stop-color="white" stop-opacity="0.2"/>
</linearGradient>
<linearGradient id="paint1_linear" x1="408.275" y1="0" x2="408.275" y2="204.137" gradientUnits="userSpaceOnUse">
<stop stop-color="white" stop-opacity="0"/>
<stop offset="1" stop-color="white" stop-opacity="0.2"/>
</linearGradient>
</defs>
</svg>
