<svg width="1402" height="689" viewBox="0 0 1402 689" fill="none" xmlns="http://www.w3.org/2000/svg">
<rect width="816.549" height="204.137" transform="matrix(0.865969 -0.500097 0.865969 0.500097 0 565.354)" fill="url(#paint0_linear)"/>
<rect width="816.549" height="204.137" transform="matrix(0.865969 -0.500097 0.865969 0.500097 145 586.354)" fill="url(#paint1_linear)"/>
<circle r="2.14863" transform="matrix(0.866044 -0.499967 0.866044 0.499967 1263.72 267.821)" fill="white" fill-opacity="0.2"/>
<circle r="2.14863" transform="matrix(0.866044 -0.499967 0.866044 0.499967 1271.16 263.524)" fill="white" fill-opacity="0.2"/>
<circle r="2.14863" transform="matrix(0.866044 -0.499967 0.866044 0.499967 1278.61 259.227)" fill="white" fill-opacity="0.2"/>
<circle r="2.14863" transform="matrix(0.866044 -0.499967 0.866044 0.499967 1286.05 254.93)" fill="white" fill-opacity="0.2"/>
<circle r="2.14863" transform="matrix(0.866044 -0.499967 0.866044 0.499967 1293.49 250.633)" fill="white" fill-opacity="0.2"/>
<circle r="2.14863" transform="matrix(0.866044 -0.499967 0.866044 0.499967 1300.94 246.336)" fill="white" fill-opacity="0.2"/>
<circle r="2.14863" transform="matrix(0.866044 -0.499967 0.866044 0.499967 1308.38 242.039)" fill="white" fill-opacity="0.2"/>
<circle r="2.14863" transform="matrix(0.866044 -0.499967 0.866044 0.499967 1315.82 237.742)" fill="white" fill-opacity="0.2"/>
<circle r="2.14863" transform="matrix(0.866044 -0.499967 0.866044 0.499967 1323.27 233.445)" fill="white" fill-opacity="0.2"/>
<circle r="2.14863" transform="matrix(0.866044 -0.499967 0.866044 0.499967 1330.71 229.148)" fill="white" fill-opacity="0.2"/>
<circle r="2.14863" transform="matrix(0.866044 -0.499967 0.866044 0.499967 1271.16 272.118)" fill="white" fill-opacity="0.2"/>
<circle r="2.14863" transform="matrix(0.866044 -0.499967 0.866044 0.499967 1278.61 267.821)" fill="white" fill-opacity="0.2"/>
<circle r="2.14863" transform="matrix(0.866044 -0.499967 0.866044 0.499967 1286.05 263.524)" fill="white" fill-opacity="0.2"/>
<circle r="2.14863" transform="matrix(0.866044 -0.499967 0.866044 0.499967 1293.49 259.227)" fill="white" fill-opacity="0.2"/>
<circle r="2.14863" transform="matrix(0.866044 -0.499967 0.866044 0.499967 1300.94 254.93)" fill="white" fill-opacity="0.2"/>
<circle r="2.14863" transform="matrix(0.866044 -0.499967 0.866044 0.499967 1308.38 250.633)" fill="white" fill-opacity="0.2"/>
<circle r="2.14863" transform="matrix(0.866044 -0.499967 0.866044 0.499967 1315.82 246.336)" fill="white" fill-opacity="0.2"/>
<circle r="2.14863" transform="matrix(0.866044 -0.499967 0.866044 0.499967 1323.27 242.039)" fill="white" fill-opacity="0.2"/>
<circle r="2.14863" transform="matrix(0.866044 -0.499967 0.866044 0.499967 1330.71 237.742)" fill="white" fill-opacity="0.2"/>
<circle r="2.14863" transform="matrix(0.866044 -0.499967 0.866044 0.499967 1338.15 233.445)" fill="white" fill-opacity="0.2"/>
<circle r="2.14863" transform="matrix(0.866044 -0.499967 0.866044 0.499967 1278.61 276.415)" fill="white" fill-opacity="0.2"/>
<circle r="2.14863" transform="matrix(0.866044 -0.499967 0.866044 0.499967 1286.05 272.118)" fill="white" fill-opacity="0.2"/>
<circle r="2.14863" transform="matrix(0.866044 -0.499967 0.866044 0.499967 1293.49 267.821)" fill="white" fill-opacity="0.2"/>
<circle r="2.14863" transform="matrix(0.866044 -0.499967 0.866044 0.499967 1300.94 263.524)" fill="white" fill-opacity="0.2"/>
<circle r="2.14863" transform="matrix(0.866044 -0.499967 0.866044 0.499967 1308.38 259.227)" fill="white" fill-opacity="0.2"/>
<circle r="2.14863" transform="matrix(0.866044 -0.499967 0.866044 0.499967 1315.82 254.93)" fill="white" fill-opacity="0.2"/>
<circle r="2.14863" transform="matrix(0.866044 -0.499967 0.866044 0.499967 1323.27 250.633)" fill="white" fill-opacity="0.2"/>
<circle r="2.14863" transform="matrix(0.866044 -0.499967 0.866044 0.499967 1330.71 246.336)" fill="white" fill-opacity="0.2"/>
<circle r="2.14863" transform="matrix(0.866044 -0.499967 0.866044 0.499967 1338.15 242.039)" fill="white" fill-opacity="0.2"/>
<circle r="2.14863" transform="matrix(0.866044 -0.499967 0.866044 0.499967 1345.6 237.742)" fill="white" fill-opacity="0.2"/>
<circle r="2.14863" transform="matrix(0.866044 -0.499967 0.866044 0.499967 1286.05 280.712)" fill="white" fill-opacity="0.2"/>
<circle r="2.14863" transform="matrix(0.866044 -0.499967 0.866044 0.499967 1293.49 276.415)" fill="white" fill-opacity="0.2"/>
<circle r="2.14863" transform="matrix(0.866044 -0.499967 0.866044 0.499967 1300.94 272.118)" fill="white" fill-opacity="0.2"/>
<circle r="2.14863" transform="matrix(0.866044 -0.499967 0.866044 0.499967 1308.38 267.821)" fill="white" fill-opacity="0.2"/>
<circle r="2.14863" transform="matrix(0.866044 -0.499967 0.866044 0.499967 1315.82 263.524)" fill="white" fill-opacity="0.2"/>
<circle r="2.14863" transform="matrix(0.866044 -0.499967 0.866044 0.499967 1323.27 259.227)" fill="white" fill-opacity="0.2"/>
<circle r="2.14863" transform="matrix(0.866044 -0.499967 0.866044 0.499967 1330.71 254.93)" fill="white" fill-opacity="0.2"/>
<circle r="2.14863" transform="matrix(0.866044 -0.499967 0.866044 0.499967 1338.15 250.633)" fill="white" fill-opacity="0.2"/>
<circle r="2.14863" transform="matrix(0.866044 -0.499967 0.866044 0.499967 1345.6 246.336)" fill="white" fill-opacity="0.2"/>
<circle r="2.14863" transform="matrix(0.866044 -0.499967 0.866044 0.499967 1353.04 242.039)" fill="white" fill-opacity="0.2"/>
<circle r="2.14863" transform="matrix(0.866044 -0.499967 0.866044 0.499967 1293.49 285.009)" fill="white" fill-opacity="0.2"/>
<circle r="2.14863" transform="matrix(0.866044 -0.499967 0.866044 0.499967 1300.94 280.712)" fill="white" fill-opacity="0.2"/>
<circle r="2.14863" transform="matrix(0.866044 -0.499967 0.866044 0.499967 1308.38 276.415)" fill="white" fill-opacity="0.2"/>
<circle r="2.14863" transform="matrix(0.866044 -0.499967 0.866044 0.499967 1315.82 272.118)" fill="white" fill-opacity="0.2"/>
<circle r="2.14863" transform="matrix(0.866044 -0.499967 0.866044 0.499967 1323.27 267.821)" fill="white" fill-opacity="0.2"/>
<circle r="2.14863" transform="matrix(0.866044 -0.499967 0.866044 0.499967 1330.71 263.524)" fill="white" fill-opacity="0.2"/>
<circle r="2.14863" transform="matrix(0.866044 -0.499967 0.866044 0.499967 1338.15 259.227)" fill="white" fill-opacity="0.2"/>
<circle r="2.14863" transform="matrix(0.866044 -0.499967 0.866044 0.499967 1345.6 254.93)" fill="white" fill-opacity="0.2"/>
<circle r="2.14863" transform="matrix(0.866044 -0.499967 0.866044 0.499967 1353.04 250.633)" fill="white" fill-opacity="0.2"/>
<circle r="2.14863" transform="matrix(0.866044 -0.499967 0.866044 0.499967 1360.48 246.336)" fill="white" fill-opacity="0.2"/>
<circle r="2.14863" transform="matrix(0.866044 -0.499967 0.866044 0.499967 1300.94 289.306)" fill="white" fill-opacity="0.2"/>
<circle r="2.14863" transform="matrix(0.866044 -0.499967 0.866044 0.499967 1308.38 285.009)" fill="white" fill-opacity="0.2"/>
<circle r="2.14863" transform="matrix(0.866044 -0.499967 0.866044 0.499967 1315.82 280.712)" fill="white" fill-opacity="0.2"/>
<circle r="2.14863" transform="matrix(0.866044 -0.499967 0.866044 0.499967 1323.27 276.415)" fill="white" fill-opacity="0.2"/>
<circle r="2.14863" transform="matrix(0.866044 -0.499967 0.866044 0.499967 1330.71 272.118)" fill="white" fill-opacity="0.2"/>
<circle r="2.14863" transform="matrix(0.866044 -0.499967 0.866044 0.499967 1338.15 267.821)" fill="white" fill-opacity="0.2"/>
<circle r="2.14863" transform="matrix(0.866044 -0.499967 0.866044 0.499967 1345.6 263.524)" fill="white" fill-opacity="0.2"/>
<circle r="2.14863" transform="matrix(0.866044 -0.499967 0.866044 0.499967 1353.04 259.227)" fill="white" fill-opacity="0.2"/>
<circle r="2.14863" transform="matrix(0.866044 -0.499967 0.866044 0.499967 1360.48 254.93)" fill="white" fill-opacity="0.2"/>
<circle r="2.14863" transform="matrix(0.866044 -0.499967 0.866044 0.499967 1367.93 250.633)" fill="white" fill-opacity="0.2"/>
<circle r="2.14863" transform="matrix(0.866044 -0.499967 0.866044 0.499967 1308.38 293.603)" fill="white" fill-opacity="0.2"/>
<circle r="2.14863" transform="matrix(0.866044 -0.499967 0.866044 0.499967 1315.82 289.306)" fill="white" fill-opacity="0.2"/>
<circle r="2.14863" transform="matrix(0.866044 -0.499967 0.866044 0.499967 1323.27 285.009)" fill="white" fill-opacity="0.2"/>
<circle r="2.14863" transform="matrix(0.866044 -0.499967 0.866044 0.499967 1330.71 280.712)" fill="white" fill-opacity="0.2"/>
<circle r="2.14863" transform="matrix(0.866044 -0.499967 0.866044 0.499967 1338.15 276.415)" fill="white" fill-opacity="0.2"/>
<circle r="2.14863" transform="matrix(0.866044 -0.499967 0.866044 0.499967 1345.6 272.118)" fill="white" fill-opacity="0.2"/>
<circle r="2.14863" transform="matrix(0.866044 -0.499967 0.866044 0.499967 1353.04 267.821)" fill="white" fill-opacity="0.2"/>
<circle r="2.14863" transform="matrix(0.866044 -0.499967 0.866044 0.499967 1360.48 263.524)" fill="white" fill-opacity="0.2"/>
<circle r="2.14863" transform="matrix(0.866044 -0.499967 0.866044 0.499967 1367.93 259.227)" fill="white" fill-opacity="0.2"/>
<circle r="2.14863" transform="matrix(0.866044 -0.499967 0.866044 0.499967 1375.37 254.93)" fill="white" fill-opacity="0.2"/>
<circle r="2.14863" transform="matrix(0.866044 -0.499967 0.866044 0.499967 1315.82 297.9)" fill="white" fill-opacity="0.2"/>
<circle r="2.14863" transform="matrix(0.866044 -0.499967 0.866044 0.499967 1323.27 293.603)" fill="white" fill-opacity="0.2"/>
<circle r="2.14863" transform="matrix(0.866044 -0.499967 0.866044 0.499967 1330.71 289.306)" fill="white" fill-opacity="0.2"/>
<circle r="2.14863" transform="matrix(0.866044 -0.499967 0.866044 0.499967 1338.15 285.009)" fill="white" fill-opacity="0.2"/>
<circle r="2.14863" transform="matrix(0.866044 -0.499967 0.866044 0.499967 1345.6 280.712)" fill="white" fill-opacity="0.2"/>
<circle r="2.14863" transform="matrix(0.866044 -0.499967 0.866044 0.499967 1353.04 276.415)" fill="white" fill-opacity="0.2"/>
<circle r="2.14863" transform="matrix(0.866044 -0.499967 0.866044 0.499967 1360.48 272.118)" fill="white" fill-opacity="0.2"/>
<circle r="2.14863" transform="matrix(0.866044 -0.499967 0.866044 0.499967 1367.93 267.821)" fill="white" fill-opacity="0.2"/>
<circle r="2.14863" transform="matrix(0.866044 -0.499967 0.866044 0.499967 1375.37 263.524)" fill="white" fill-opacity="0.2"/>
<circle r="2.14863" transform="matrix(0.866044 -0.499967 0.866044 0.499967 1382.81 259.227)" fill="white" fill-opacity="0.2"/>
<circle r="2.14863" transform="matrix(0.866044 -0.499967 0.866044 0.499967 1323.27 302.197)" fill="white" fill-opacity="0.2"/>
<circle r="2.14863" transform="matrix(0.866044 -0.499967 0.866044 0.499967 1330.71 297.9)" fill="white" fill-opacity="0.2"/>
<circle r="2.14863" transform="matrix(0.866044 -0.499967 0.866044 0.499967 1338.15 293.603)" fill="white" fill-opacity="0.2"/>
<circle r="2.14863" transform="matrix(0.866044 -0.499967 0.866044 0.499967 1345.6 289.306)" fill="white" fill-opacity="0.2"/>
<circle r="2.14863" transform="matrix(0.866044 -0.499967 0.866044 0.499967 1353.04 285.009)" fill="white" fill-opacity="0.2"/>
<circle r="2.14863" transform="matrix(0.866044 -0.499967 0.866044 0.499967 1360.48 280.712)" fill="white" fill-opacity="0.2"/>
<circle r="2.14863" transform="matrix(0.866044 -0.499967 0.866044 0.499967 1367.93 276.415)" fill="white" fill-opacity="0.2"/>
<circle r="2.14863" transform="matrix(0.866044 -0.499967 0.866044 0.499967 1375.37 272.118)" fill="white" fill-opacity="0.2"/>
<circle r="2.14863" transform="matrix(0.866044 -0.499967 0.866044 0.499967 1382.81 267.821)" fill="white" fill-opacity="0.2"/>
<circle r="2.14863" transform="matrix(0.866044 -0.499967 0.866044 0.499967 1390.26 263.524)" fill="white" fill-opacity="0.2"/>
<circle r="2.14863" transform="matrix(0.866044 -0.499967 0.866044 0.499967 1330.71 306.494)" fill="white" fill-opacity="0.2"/>
<circle r="2.14863" transform="matrix(0.866044 -0.499967 0.866044 0.499967 1338.15 302.197)" fill="white" fill-opacity="0.2"/>
<circle r="2.14863" transform="matrix(0.866044 -0.499967 0.866044 0.499967 1345.6 297.9)" fill="white" fill-opacity="0.2"/>
<circle r="2.14863" transform="matrix(0.866044 -0.499967 0.866044 0.499967 1353.04 293.603)" fill="white" fill-opacity="0.2"/>
<circle r="2.14863" transform="matrix(0.866044 -0.499967 0.866044 0.499967 1360.48 289.306)" fill="white" fill-opacity="0.2"/>
<circle r="2.14863" transform="matrix(0.866044 -0.499967 0.866044 0.499967 1367.93 285.009)" fill="white" fill-opacity="0.2"/>
<circle r="2.14863" transform="matrix(0.866044 -0.499967 0.866044 0.499967 1375.37 280.712)" fill="white" fill-opacity="0.2"/>
<circle r="2.14863" transform="matrix(0.866044 -0.499967 0.866044 0.499967 1382.81 276.415)" fill="white" fill-opacity="0.2"/>
<circle r="2.14863" transform="matrix(0.866044 -0.499967 0.866044 0.499967 1390.26 272.118)" fill="white" fill-opacity="0.2"/>
<circle r="2.14863" transform="matrix(0.866044 -0.499967 0.866044 0.499967 1397.7 267.821)" fill="white" fill-opacity="0.2"/>
<circle r="2.14863" transform="matrix(0.866044 -0.499967 0.866044 0.499967 304.722 40.8213)" fill="white" fill-opacity="0.2"/>
<circle r="2.14863" transform="matrix(0.866044 -0.499967 0.866044 0.499967 312.165 36.5243)" fill="white" fill-opacity="0.2"/>
<circle r="2.14863" transform="matrix(0.866044 -0.499967 0.866044 0.499967 319.608 32.2273)" fill="white" fill-opacity="0.2"/>
<circle r="2.14863" transform="matrix(0.866044 -0.499967 0.866044 0.499967 327.051 27.9303)" fill="white" fill-opacity="0.2"/>
<circle r="2.14863" transform="matrix(0.866044 -0.499967 0.866044 0.499967 334.495 23.6334)" fill="white" fill-opacity="0.2"/>
<circle r="2.14863" transform="matrix(0.866044 -0.499967 0.866044 0.499967 341.938 19.3364)" fill="white" fill-opacity="0.2"/>
<circle r="2.14863" transform="matrix(0.866044 -0.499967 0.866044 0.499967 349.381 15.0394)" fill="white" fill-opacity="0.2"/>
<circle r="2.14863" transform="matrix(0.866044 -0.499967 0.866044 0.499967 356.824 10.7424)" fill="white" fill-opacity="0.2"/>
<circle r="2.14863" transform="matrix(0.866044 -0.499967 0.866044 0.499967 364.267 6.4455)" fill="white" fill-opacity="0.2"/>
<circle r="2.14863" transform="matrix(0.866044 -0.499967 0.866044 0.499967 371.711 2.1485)" fill="white" fill-opacity="0.2"/>
<circle r="2.14863" transform="matrix(0.866044 -0.499967 0.866044 0.499967 312.165 45.1183)" fill="white" fill-opacity="0.2"/>
<circle r="2.14863" transform="matrix(0.866044 -0.499967 0.866044 0.499967 319.608 40.8213)" fill="white" fill-opacity="0.2"/>
<circle r="2.14863" transform="matrix(0.866044 -0.499967 0.866044 0.499967 327.051 36.5243)" fill="white" fill-opacity="0.2"/>
<circle r="2.14863" transform="matrix(0.866044 -0.499967 0.866044 0.499967 334.495 32.2273)" fill="white" fill-opacity="0.2"/>
<circle r="2.14863" transform="matrix(0.866044 -0.499967 0.866044 0.499967 341.938 27.9303)" fill="white" fill-opacity="0.2"/>
<circle r="2.14863" transform="matrix(0.866044 -0.499967 0.866044 0.499967 349.381 23.6334)" fill="white" fill-opacity="0.2"/>
<circle r="2.14863" transform="matrix(0.866044 -0.499967 0.866044 0.499967 356.824 19.3364)" fill="white" fill-opacity="0.2"/>
<circle r="2.14863" transform="matrix(0.866044 -0.499967 0.866044 0.499967 364.267 15.0394)" fill="white" fill-opacity="0.2"/>
<circle r="2.14863" transform="matrix(0.866044 -0.499967 0.866044 0.499967 371.711 10.7424)" fill="white" fill-opacity="0.2"/>
<circle r="2.14863" transform="matrix(0.866044 -0.499967 0.866044 0.499967 379.154 6.4455)" fill="white" fill-opacity="0.2"/>
<circle r="2.14863" transform="matrix(0.866044 -0.499967 0.866044 0.499967 319.608 49.4152)" fill="white" fill-opacity="0.2"/>
<circle r="2.14863" transform="matrix(0.866044 -0.499967 0.866044 0.499967 327.051 45.1183)" fill="white" fill-opacity="0.2"/>
<circle r="2.14863" transform="matrix(0.866044 -0.499967 0.866044 0.499967 334.495 40.8213)" fill="white" fill-opacity="0.2"/>
<circle r="2.14863" transform="matrix(0.866044 -0.499967 0.866044 0.499967 341.938 36.5243)" fill="white" fill-opacity="0.2"/>
<circle r="2.14863" transform="matrix(0.866044 -0.499967 0.866044 0.499967 349.381 32.2273)" fill="white" fill-opacity="0.2"/>
<circle r="2.14863" transform="matrix(0.866044 -0.499967 0.866044 0.499967 356.824 27.9303)" fill="white" fill-opacity="0.2"/>
<circle r="2.14863" transform="matrix(0.866044 -0.499967 0.866044 0.499967 364.267 23.6334)" fill="white" fill-opacity="0.2"/>
<circle r="2.14863" transform="matrix(0.866044 -0.499967 0.866044 0.499967 371.711 19.3364)" fill="white" fill-opacity="0.2"/>
<circle r="2.14863" transform="matrix(0.866044 -0.499967 0.866044 0.499967 379.154 15.0394)" fill="white" fill-opacity="0.2"/>
<circle r="2.14863" transform="matrix(0.866044 -0.499967 0.866044 0.499967 386.597 10.7424)" fill="white" fill-opacity="0.2"/>
<circle r="2.14863" transform="matrix(0.866044 -0.499967 0.866044 0.499967 327.051 53.7122)" fill="white" fill-opacity="0.2"/>
<circle r="2.14863" transform="matrix(0.866044 -0.499967 0.866044 0.499967 334.495 49.4152)" fill="white" fill-opacity="0.2"/>
<circle r="2.14863" transform="matrix(0.866044 -0.499967 0.866044 0.499967 341.938 45.1183)" fill="white" fill-opacity="0.2"/>
<circle r="2.14863" transform="matrix(0.866044 -0.499967 0.866044 0.499967 349.381 40.8213)" fill="white" fill-opacity="0.2"/>
<circle r="2.14863" transform="matrix(0.866044 -0.499967 0.866044 0.499967 356.824 36.5243)" fill="white" fill-opacity="0.2"/>
<circle r="2.14863" transform="matrix(0.866044 -0.499967 0.866044 0.499967 364.267 32.2273)" fill="white" fill-opacity="0.2"/>
<circle r="2.14863" transform="matrix(0.866044 -0.499967 0.866044 0.499967 371.711 27.9303)" fill="white" fill-opacity="0.2"/>
<circle r="2.14863" transform="matrix(0.866044 -0.499967 0.866044 0.499967 379.154 23.6334)" fill="white" fill-opacity="0.2"/>
<circle r="2.14863" transform="matrix(0.866044 -0.499967 0.866044 0.499967 386.597 19.3364)" fill="white" fill-opacity="0.2"/>
<circle r="2.14863" transform="matrix(0.866044 -0.499967 0.866044 0.499967 394.04 15.0394)" fill="white" fill-opacity="0.2"/>
<circle r="2.14863" transform="matrix(0.866044 -0.499967 0.866044 0.499967 334.495 58.0092)" fill="white" fill-opacity="0.2"/>
<circle r="2.14863" transform="matrix(0.866044 -0.499967 0.866044 0.499967 341.938 53.7122)" fill="white" fill-opacity="0.2"/>
<circle r="2.14863" transform="matrix(0.866044 -0.499967 0.866044 0.499967 349.381 49.4153)" fill="white" fill-opacity="0.2"/>
<circle r="2.14863" transform="matrix(0.866044 -0.499967 0.866044 0.499967 356.824 45.1183)" fill="white" fill-opacity="0.2"/>
<circle r="2.14863" transform="matrix(0.866044 -0.499967 0.866044 0.499967 364.267 40.8213)" fill="white" fill-opacity="0.2"/>
<circle r="2.14863" transform="matrix(0.866044 -0.499967 0.866044 0.499967 371.711 36.5243)" fill="white" fill-opacity="0.2"/>
<circle r="2.14863" transform="matrix(0.866044 -0.499967 0.866044 0.499967 379.154 32.2273)" fill="white" fill-opacity="0.2"/>
<circle r="2.14863" transform="matrix(0.866044 -0.499967 0.866044 0.499967 386.597 27.9304)" fill="white" fill-opacity="0.2"/>
<circle r="2.14863" transform="matrix(0.866044 -0.499967 0.866044 0.499967 394.04 23.6334)" fill="white" fill-opacity="0.2"/>
<circle r="2.14863" transform="matrix(0.866044 -0.499967 0.866044 0.499967 401.484 19.3364)" fill="white" fill-opacity="0.2"/>
<circle r="2.14863" transform="matrix(0.866044 -0.499967 0.866044 0.499967 341.938 62.3062)" fill="white" fill-opacity="0.2"/>
<circle r="2.14863" transform="matrix(0.866044 -0.499967 0.866044 0.499967 349.381 58.0092)" fill="white" fill-opacity="0.2"/>
<circle r="2.14863" transform="matrix(0.866044 -0.499967 0.866044 0.499967 356.824 53.7122)" fill="white" fill-opacity="0.2"/>
<circle r="2.14863" transform="matrix(0.866044 -0.499967 0.866044 0.499967 364.267 49.4153)" fill="white" fill-opacity="0.2"/>
<circle r="2.14863" transform="matrix(0.866044 -0.499967 0.866044 0.499967 371.711 45.1183)" fill="white" fill-opacity="0.2"/>
<circle r="2.14863" transform="matrix(0.866044 -0.499967 0.866044 0.499967 379.154 40.8213)" fill="white" fill-opacity="0.2"/>
<circle r="2.14863" transform="matrix(0.866044 -0.499967 0.866044 0.499967 386.597 36.5243)" fill="white" fill-opacity="0.2"/>
<circle r="2.14863" transform="matrix(0.866044 -0.499967 0.866044 0.499967 394.04 32.2273)" fill="white" fill-opacity="0.2"/>
<circle r="2.14863" transform="matrix(0.866044 -0.499967 0.866044 0.499967 401.484 27.9303)" fill="white" fill-opacity="0.2"/>
<circle r="2.14863" transform="matrix(0.866044 -0.499967 0.866044 0.499967 408.927 23.6334)" fill="white" fill-opacity="0.2"/>
<circle r="2.14863" transform="matrix(0.866044 -0.499967 0.866044 0.499967 349.381 66.6031)" fill="white" fill-opacity="0.2"/>
<circle r="2.14863" transform="matrix(0.866044 -0.499967 0.866044 0.499967 356.824 62.3062)" fill="white" fill-opacity="0.2"/>
<circle r="2.14863" transform="matrix(0.866044 -0.499967 0.866044 0.499967 364.267 58.0092)" fill="white" fill-opacity="0.2"/>
<circle r="2.14863" transform="matrix(0.866044 -0.499967 0.866044 0.499967 371.711 53.7122)" fill="white" fill-opacity="0.2"/>
<circle r="2.14863" transform="matrix(0.866044 -0.499967 0.866044 0.499967 379.154 49.4152)" fill="white" fill-opacity="0.2"/>
<circle r="2.14863" transform="matrix(0.866044 -0.499967 0.866044 0.499967 386.597 45.1183)" fill="white" fill-opacity="0.2"/>
<circle r="2.14863" transform="matrix(0.866044 -0.499967 0.866044 0.499967 394.04 40.8213)" fill="white" fill-opacity="0.2"/>
<circle r="2.14863" transform="matrix(0.866044 -0.499967 0.866044 0.499967 401.484 36.5243)" fill="white" fill-opacity="0.2"/>
<circle r="2.14863" transform="matrix(0.866044 -0.499967 0.866044 0.499967 408.927 32.2273)" fill="white" fill-opacity="0.2"/>
<circle r="2.14863" transform="matrix(0.866044 -0.499967 0.866044 0.499967 416.37 27.9303)" fill="white" fill-opacity="0.2"/>
<circle r="2.14863" transform="matrix(0.866044 -0.499967 0.866044 0.499967 356.824 70.9001)" fill="white" fill-opacity="0.2"/>
<circle r="2.14863" transform="matrix(0.866044 -0.499967 0.866044 0.499967 364.267 66.6031)" fill="white" fill-opacity="0.2"/>
<circle r="2.14863" transform="matrix(0.866044 -0.499967 0.866044 0.499967 371.711 62.3062)" fill="white" fill-opacity="0.2"/>
<circle r="2.14863" transform="matrix(0.866044 -0.499967 0.866044 0.499967 379.154 58.0092)" fill="white" fill-opacity="0.2"/>
<circle r="2.14863" transform="matrix(0.866044 -0.499967 0.866044 0.499967 386.597 53.7122)" fill="white" fill-opacity="0.2"/>
<circle r="2.14863" transform="matrix(0.866044 -0.499967 0.866044 0.499967 394.04 49.4152)" fill="white" fill-opacity="0.2"/>
<circle r="2.14863" transform="matrix(0.866044 -0.499967 0.866044 0.499967 401.484 45.1183)" fill="white" fill-opacity="0.2"/>
<circle r="2.14863" transform="matrix(0.866044 -0.499967 0.866044 0.499967 408.927 40.8213)" fill="white" fill-opacity="0.2"/>
<circle r="2.14863" transform="matrix(0.866044 -0.499967 0.866044 0.499967 416.37 36.5243)" fill="white" fill-opacity="0.2"/>
<circle r="2.14863" transform="matrix(0.866044 -0.499967 0.866044 0.499967 423.813 32.2273)" fill="white" fill-opacity="0.2"/>
<circle r="2.14863" transform="matrix(0.866044 -0.499967 0.866044 0.499967 364.267 75.1971)" fill="white" fill-opacity="0.2"/>
<circle r="2.14863" transform="matrix(0.866044 -0.499967 0.866044 0.499967 371.711 70.9001)" fill="white" fill-opacity="0.2"/>
<circle r="2.14863" transform="matrix(0.866044 -0.499967 0.866044 0.499967 379.154 66.6031)" fill="white" fill-opacity="0.2"/>
<circle r="2.14863" transform="matrix(0.866044 -0.499967 0.866044 0.499967 386.597 62.3062)" fill="white" fill-opacity="0.2"/>
<circle r="2.14863" transform="matrix(0.866044 -0.499967 0.866044 0.499967 394.04 58.0092)" fill="white" fill-opacity="0.2"/>
<circle r="2.14863" transform="matrix(0.866044 -0.499967 0.866044 0.499967 401.484 53.7122)" fill="white" fill-opacity="0.2"/>
<circle r="2.14863" transform="matrix(0.866044 -0.499967 0.866044 0.499967 408.927 49.4153)" fill="white" fill-opacity="0.2"/>
<circle r="2.14863" transform="matrix(0.866044 -0.499967 0.866044 0.499967 416.37 45.1183)" fill="white" fill-opacity="0.2"/>
<circle r="2.14863" transform="matrix(0.866044 -0.499967 0.866044 0.499967 423.813 40.8213)" fill="white" fill-opacity="0.2"/>
<circle r="2.14863" transform="matrix(0.866044 -0.499967 0.866044 0.499967 431.257 36.5243)" fill="white" fill-opacity="0.2"/>
<circle r="2.14863" transform="matrix(0.866044 -0.499967 0.866044 0.499967 371.711 79.4941)" fill="white" fill-opacity="0.2"/>
<circle r="2.14863" transform="matrix(0.866044 -0.499967 0.866044 0.499967 379.154 75.1971)" fill="white" fill-opacity="0.2"/>
<circle r="2.14863" transform="matrix(0.866044 -0.499967 0.866044 0.499967 386.597 70.9001)" fill="white" fill-opacity="0.2"/>
<circle r="2.14863" transform="matrix(0.866044 -0.499967 0.866044 0.499967 394.04 66.6031)" fill="white" fill-opacity="0.2"/>
<circle r="2.14863" transform="matrix(0.866044 -0.499967 0.866044 0.499967 401.484 62.3062)" fill="white" fill-opacity="0.2"/>
<circle r="2.14863" transform="matrix(0.866044 -0.499967 0.866044 0.499967 408.927 58.0092)" fill="white" fill-opacity="0.2"/>
<circle r="2.14863" transform="matrix(0.866044 -0.499967 0.866044 0.499967 416.37 53.7122)" fill="white" fill-opacity="0.2"/>
<circle r="2.14863" transform="matrix(0.866044 -0.499967 0.866044 0.499967 423.813 49.4153)" fill="white" fill-opacity="0.2"/>
<circle r="2.14863" transform="matrix(0.866044 -0.499967 0.866044 0.499967 431.257 45.1183)" fill="white" fill-opacity="0.2"/>
<circle r="2.14863" transform="matrix(0.866044 -0.499967 0.866044 0.499967 438.7 40.8213)" fill="white" fill-opacity="0.2"/>
<defs>
<linearGradient id="paint0_linear" x1="408.275" y1="0" x2="408.275" y2="204.137" gradientUnits="userSpaceOnUse">
<stop stop-color="white" stop-opacity="0"/>
<stop offset="1" stop-color="white" stop-opacity="0.2"/>
</linearGradient>
<linearGradient id="paint1_linear" x1="408.275" y1="0" x2="408.275" y2="204.137" gradientUnits="userSpaceOnUse">
<stop stop-color="white" stop-opacity="0"/>
<stop offset="1" stop-color="white" stop-opacity="0.2"/>
</linearGradient>
</defs>
</svg>
